<?xml version="1.0" encoding="utf-8"?>
<!-- Generator: Adobe Illustrator 23.0.1, SVG Export Plug-In . SVG Version: 6.00 Build 0)  -->
<svg version="1.1" id="Ebene_1" xmlns="http://www.w3.org/2000/svg" xmlns:xlink="http://www.w3.org/1999/xlink" x="0px" y="0px"
	 viewBox="0 0 542.12 113.4" style="enable-background:new 0 0 542.12 113.4;" xml:space="preserve">
<style type="text/css">
	.st0{fill:#4565AD;}
</style>
<g>
	<g>
		<path class="st0" d="M20.85,34.05c4.65,0,7.05,2.25,7.05,6.9v65.4c0,4.65-2.4,7.05-7.05,7.05s-7.05-2.4-7.05-7.05V48H7.2
			C2.4,48,0,45.6,0,40.95c0-4.65,2.4-6.9,7.05-6.9H20.85z M30.3,11.1c0,6.3-5.1,11.25-11.1,11.25c-6.15,0-11.4-4.95-11.4-11.25
			C7.8,4.95,13.05,0,19.2,0C25.2,0,30.3,4.95,30.3,11.1z"/>
		<path class="st0" d="M65.25,7.05v27H82.2c4.8,0,7.05,2.25,7.05,6.9C89.25,45.6,87,48,82.2,48H65.25v51.45h11.7
			c4.8,0,7.2,2.25,7.2,6.9c0,4.65-2.4,7.05-7.05,7.05H58.35c-4.65,0-7.05-2.4-7.05-7.05V48h-3.6c-5.55,0-8.25-2.4-8.25-7.05
			c0-4.65,2.7-6.9,8.25-6.9h3.6v-27C51.3,2.4,53.7,0,58.35,0S65.25,2.4,65.25,7.05z"/>
	</g>
	<g>
		<path d="M127.83,79.32h-1.89c-4.36,0-7.84-1.27-10.42-3.81c-2.58-2.54-3.88-5.97-3.88-10.31V51.35c0-5.3-2.12-7.95-6.37-7.95v-6.5
			c4.25,0,6.37-2.65,6.37-7.95V15.09c0-4.33,1.29-7.77,3.88-10.31c2.58-2.54,6.06-3.81,10.42-3.81h1.89v6.5h-1.29
			c-5.11,0-7.66,2.88-7.66,8.64v14.2c-0.06,5.08-2.04,8.3-5.94,9.66v0.34c3.85,1.25,5.83,4.39,5.94,9.41v14.45
			c0,5.76,2.55,8.64,7.66,8.64h1.29V79.32z"/>
		<path d="M153.06,70.08c-5.51,0-10.25-2.17-14.21-6.5c-3.9-4.39-5.86-9.66-5.86-15.82s1.95-11.43,5.86-15.82
			c3.96-4.33,8.7-6.5,14.21-6.5c3.1,0,5.93,0.66,8.48,1.97c2.55,1.31,4.52,3.05,5.9,5.22h0.34l-0.34-5.82V7.48h7.92v61.24h-7.58
			V62.9h-0.34c-1.38,2.17-3.35,3.91-5.9,5.22C158.98,69.43,156.16,70.08,153.06,70.08z M154.35,62.9c3.9,0,7.09-1.4,9.56-4.19
			c2.58-2.79,3.88-6.44,3.88-10.95c0-4.39-1.29-8.01-3.88-10.86c-2.53-2.85-5.71-4.28-9.56-4.28c-3.79,0-6.98,1.43-9.56,4.28
			c-2.58,2.85-3.88,6.47-3.88,10.86c0,4.45,1.29,8.07,3.88,10.86C147.37,61.48,150.56,62.9,154.35,62.9z"/>
		<path d="M216.87,57.08c0,3.65-1.61,6.73-4.82,9.24c-3.22,2.51-7.26,3.76-12.14,3.76c-4.25,0-7.98-1.1-11.19-3.29
			c-3.22-2.19-5.51-5.09-6.89-8.68l7.06-2.99c1.03,2.51,2.54,4.46,4.52,5.86c1.98,1.4,4.15,2.1,6.5,2.1c2.53,0,4.64-0.54,6.33-1.62
			c1.69-1.08,2.54-2.37,2.54-3.85c0-2.68-2.07-4.65-6.2-5.9l-7.23-1.8c-8.21-2.05-12.31-5.99-12.31-11.8c0-3.82,1.56-6.89,4.69-9.19
			c3.13-2.31,7.13-3.46,12.01-3.46c3.73,0,7.1,0.88,10.12,2.65c3.01,1.77,5.12,4.13,6.33,7.1l-7.06,2.91
			c-0.8-1.77-2.11-3.15-3.92-4.15c-1.81-1-3.83-1.5-6.07-1.5c-2.07,0-3.92,0.51-5.55,1.54s-2.45,2.28-2.45,3.76
			c0,2.4,2.27,4.11,6.8,5.13l6.37,1.62C212.68,46.57,216.87,50.76,216.87,57.08z"/>
		<path d="M243.47,70.08c-6.26,0-11.45-2.11-15.59-6.33c-4.08-4.33-6.11-9.66-6.11-15.99c0-6.44,2.04-11.77,6.11-15.99
			c4.13-4.22,9.33-6.33,15.59-6.33c4.31,0,8.07,1.07,11.28,3.21c3.21,2.14,5.63,5.09,7.23,8.85l-7.23,2.99
			c-2.24-5.25-6.17-7.87-11.8-7.87c-3.62,0-6.75,1.45-9.39,4.36c-2.58,2.91-3.88,6.5-3.88,10.78s1.29,7.87,3.88,10.78
			c2.64,2.91,5.77,4.36,9.39,4.36c5.8,0,9.87-2.62,12.23-7.87l7.06,2.99c-1.55,3.76-3.98,6.71-7.28,8.85
			C251.67,69.02,247.84,70.08,243.47,70.08z"/>
		<path d="M269.14,7.48h7.92v19.33l-0.34,5.82h0.34c1.21-2.05,3.06-3.76,5.55-5.13c2.5-1.37,5.09-2.05,7.79-2.05
			c5.17,0,9.14,1.47,11.93,4.4c2.78,2.94,4.18,7.11,4.18,12.53v26.34h-7.92v-24.8c0-7.53-3.36-11.29-10.08-11.29
			c-3.22,0-5.93,1.33-8.14,3.98c-2.21,2.65-3.32,5.75-3.32,9.28v22.84h-7.92V7.48z"/>
		<path d="M352.84,68.72h-7.58V62.9h-0.34c-1.21,2.05-3.06,3.76-5.55,5.13c-2.5,1.37-5.1,2.05-7.79,2.05
			c-5.17,0-9.14-1.47-11.93-4.4c-2.79-2.94-4.18-7.11-4.18-12.53V26.81h7.92v25.83c0.17,6.84,3.65,10.26,10.42,10.26
			c3.16,0,5.8-1.27,7.92-3.81c2.12-2.54,3.19-5.57,3.19-9.11V26.81h7.92V68.72z"/>
		<path d="M362.48,26.81h7.58v5.82h0.34c1.21-2.05,3.06-3.76,5.55-5.13c2.5-1.37,5.09-2.05,7.79-2.05c5.17,0,9.14,1.47,11.93,4.4
			c2.78,2.94,4.18,7.11,4.18,12.53v26.34h-7.92V42.89c-0.17-6.84-3.65-10.26-10.42-10.26c-3.16,0-5.8,1.27-7.92,3.81
			c-2.12,2.54-3.19,5.57-3.19,9.11v23.18h-7.92V26.81z"/>
		<path d="M427.41,88.56c-2.35,0-4.56-0.3-6.63-0.9c-2.07-0.6-3.95-1.44-5.64-2.52c-1.69-1.08-3.14-2.37-4.35-3.85
			c-1.21-1.48-2.12-3.14-2.75-4.96l7.49-3.08c0.86,2.45,2.35,4.42,4.48,5.9c2.12,1.48,4.59,2.22,7.41,2.22
			c4.31,0,7.67-1.28,10.08-3.85c2.41-2.57,3.62-6.1,3.62-10.61V62.9h-0.34c-1.49,2.22-3.52,3.98-6.07,5.26
			c-2.56,1.28-5.33,1.92-8.31,1.92c-5.51,0-10.25-2.14-14.21-6.41c-3.9-4.39-5.86-9.69-5.86-15.91c0-6.21,1.95-11.49,5.86-15.82
			c3.96-4.33,8.7-6.5,14.21-6.5c2.98,0,5.75,0.64,8.31,1.92c2.55,1.28,4.58,3.04,6.07,5.26h0.34v-5.82h7.58v40.11
			c0,6.73-1.92,12-5.77,15.82C439.01,86.62,433.84,88.56,427.41,88.56z M427.67,62.9c3.9,0,7.09-1.4,9.56-4.19
			c2.58-2.79,3.88-6.44,3.88-10.95c0-4.39-1.29-8.01-3.88-10.86c-2.53-2.85-5.71-4.28-9.56-4.28c-3.79,0-6.98,1.43-9.56,4.28
			c-2.58,2.85-3.88,6.47-3.88,10.86c0,4.45,1.29,8.07,3.88,10.86C420.69,61.48,423.88,62.9,427.67,62.9z"/>
		<path d="M476.84,70.08c-6.2,0-11.31-2.11-15.33-6.33c-4.02-4.22-6.03-9.55-6.03-15.99c0-6.38,1.95-11.7,5.86-15.95
			c3.9-4.25,8.9-6.37,14.98-6.37c6.26,0,11.24,2.01,14.94,6.03c3.7,4.02,5.55,9.65,5.55,16.89l-0.09,0.86h-33.15
			c0.11,4.11,1.49,7.41,4.13,9.92c2.64,2.51,5.8,3.76,9.47,3.76c5.05,0,9.01-2.51,11.88-7.53l7.06,3.42
			c-1.89,3.54-4.52,6.3-7.88,8.3S481.09,70.08,476.84,70.08z M464.18,42.72h24.2c-0.23-2.91-1.42-5.32-3.57-7.23
			c-2.15-1.91-5.04-2.86-8.65-2.86c-2.99,0-5.55,0.91-7.71,2.74C466.29,37.19,464.87,39.64,464.18,42.72z"/>
		<path d="M511.98,7.48v61.24h-7.92V7.48H511.98z"/>
		<path d="M519.55,79.32v-6.5h1.29c5.11,0,7.66-2.88,7.66-8.64V49.73c0.11-5.02,2.09-8.15,5.94-9.41v-0.34
			c-3.9-1.37-5.89-4.59-5.94-9.66v-14.2c0-5.76-2.56-8.64-7.66-8.64h-1.29v-6.5h1.89c4.36,0,7.84,1.27,10.42,3.81
			c2.58,2.54,3.88,5.97,3.88,10.31v13.86c0,5.3,2.12,7.95,6.37,7.95v6.5c-4.25,0-6.37,2.65-6.37,7.95v13.86
			c0,4.33-1.29,7.77-3.88,10.31c-2.58,2.54-6.06,3.81-10.42,3.81H519.55z"/>
	</g>
</g>
</svg>
